<?xml version="1.0" standalone="no"?>
<!DOCTYPE svg PUBLIC "-//W3C//DTD SVG 20010904//EN"
 "http://www.w3.org/TR/2001/REC-SVG-20010904/DTD/svg10.dtd">
<svg version="1.0" xmlns="http://www.w3.org/2000/svg"
 width="332.000000pt" height="339.000000pt" viewBox="0 0 332.000000 339.000000"
 preserveAspectRatio="xMidYMid meet">

<g transform="translate(0.000000,339.000000) scale(0.100000,-0.100000)"
fill="#000000" stroke="none">
<path d="M240 2880 l0 -240 240 0 240 0 0 240 0 240 -240 0 -240 0 0 -240z
m410 0 l0 -170 -170 0 -170 0 0 170 0 170 170 0 170 0 0 -170z"/>
<path d="M380 2880 l0 -100 100 0 100 0 0 100 0 100 -100 0 -100 0 0 -100z"/>
<path d="M1192 3103 c3 -44 -2 -53 -32 -53 -28 0 -30 -3 -30 -35 l0 -35 -70 0
-70 0 0 -35 0 -36 68 3 67 3 3 33 c3 31 6 33 34 30 31 -3 31 -3 32 -63 l1 -60
67 -3 67 -3 3 33 3 33 167 0 c93 0 168 -2 169 -5 0 -3 2 -17 3 -32 l2 -28
-103 0 -103 0 0 -35 0 -35 -70 0 -70 0 0 -105 0 -105 35 0 35 0 0 70 0 70 35
0 35 0 0 -70 0 -70 35 0 c33 0 35 -2 35 -34 0 -30 3 -33 28 -31 42 3 42 3 40
35 -2 27 -6 30 -35 30 l-33 0 0 70 0 70 -35 0 c-33 0 -35 2 -35 35 l0 36 67
-3 66 -3 2 -60 c1 -33 3 -63 4 -67 0 -5 16 -8 35 -8 28 0 33 -4 33 -22 1 -44
3 -48 33 -48 27 0 30 -3 30 -33 l0 -34 -67 1 -68 0 0 -29 c0 -30 0 -30 68 -33
l67 -3 0 -34 0 -35 -100 0 -100 0 0 35 c0 33 -2 35 -35 35 -33 0 -35 -2 -35
-35 0 -33 2 -35 35 -35 33 0 35 -2 35 -35 0 -33 2 -35 34 -35 30 0 34 -3 31
-20 -9 -48 -4 -50 176 -50 l169 0 0 -30 c0 -32 -3 -33 -62 -30 -62 3 -78 -7
-78 -45 0 -31 -2 -33 -32 -32 -30 2 -34 6 -38 37 l-5 36 -65 -1 -65 0 0 -35
c0 -32 3 -35 30 -36 17 -1 33 -2 36 -3 3 -1 6 -13 5 -28 -1 -24 3 -28 32 -31
29 -3 32 -6 32 -38 l0 -34 105 0 105 0 0 35 c0 33 -2 35 -35 35 -33 0 -35 2
-35 33 0 25 4 34 18 34 9 -1 41 0 71 1 l54 2 -5 65 -6 65 37 0 37 0 -2 -62
c-1 -35 -3 -80 -3 -100 -1 -34 -4 -37 -33 -40 -29 -3 -32 -6 -33 -35 -1 -31 1
-33 35 -33 l36 0 -3 -135 c-1 -99 1 -135 10 -136 7 0 54 -1 104 -2 l93 -2 0
36 0 37 -67 -2 -68 -1 -3 68 -3 67 71 0 70 0 0 -35 c0 -33 2 -35 35 -35 33 0
35 -2 35 -33 0 -33 5 -35 61 -28 3 1 6 15 7 31 1 28 -2 30 -34 30 -32 0 -34 2
-34 35 0 33 -2 35 -35 35 -33 0 -35 2 -35 35 l0 35 -100 0 c-59 0 -101 4 -101
10 -1 6 -1 17 -1 25 0 31 3 35 32 35 l30 0 0 65 c0 68 -2 66 50 69 9 1 16 13
18 34 3 31 2 32 -32 32 -34 0 -36 2 -36 35 0 33 2 35 35 35 l35 0 0 70 0 70
35 0 c33 0 35 -2 35 -35 0 -33 2 -35 35 -35 33 0 35 -2 35 -35 0 -33 2 -35 34
-35 33 0 34 2 32 33 -2 28 -6 32 -34 35 l-31 3 -3 67 -3 67 -67 -1 -68 -1 0
33 0 34 -65 0 c-72 0 -67 -7 -69 90 -1 44 0 45 32 48 31 3 32 2 32 -32 0 -34
2 -36 35 -36 33 0 35 2 35 35 0 33 -2 35 -35 35 -33 0 -35 2 -35 35 0 33 2 35
35 35 l35 0 0 100 0 100 34 0 c32 0 35 -3 38 -32 3 -28 7 -32 33 -32 26 0 30
4 33 32 3 31 2 32 -32 32 -34 0 -36 2 -36 35 0 33 -2 35 -35 35 -33 0 -35 2
-35 35 l0 35 -65 0 c-45 0 -65 -4 -67 -12 0 -7 -2 -17 -3 -23 -2 -5 -3 -16 -4
-22 0 -7 -14 -13 -31 -13 -30 0 -35 8 -33 58 1 7 -12 12 -33 12 -32 0 -34 -2
-34 -34 0 -32 3 -35 32 -38 l32 -3 -1 -98 0 -98 36 3 36 3 -1 63 -1 62 34 0
33 0 0 -99 0 -100 -32 -3 c-29 -3 -33 -6 -33 -33 0 -27 -4 -31 -35 -35 -35 -5
-35 -6 -32 -49 6 -69 -3 -91 -38 -91 l-30 0 0 105 0 105 -35 0 -35 0 0 70 c0
65 1 69 23 68 42 -2 47 2 47 32 l0 30 -105 0 -105 0 0 70 0 70 -65 0 c-45 0
-65 -4 -67 -12 0 -7 -2 -17 -3 -23 -2 -5 -3 -31 -4 -57 l-1 -48 -65 0 -65 0 0
70 0 70 -70 0 -70 0 0 -35 c0 -33 2 -35 35 -35 33 0 35 -2 35 -35 l0 -35 -65
0 -65 0 -1 48 c-1 26 -2 56 -3 67 -1 16 -9 21 -38 23 -32 3 -38 0 -36 -15z
m1028 -88 c0 -33 -2 -35 -35 -35 -33 0 -35 2 -35 35 0 33 2 35 35 35 33 0 35
-2 35 -35z m-412 -134 c3 -30 2 -31 -32 -31 -33 0 -36 3 -36 28 0 36 5 41 38
38 22 -3 28 -9 30 -35z m72 -171 l0 -70 -35 0 -35 0 0 70 0 70 35 0 35 0 0
-70z m-140 -36 c0 -34 -1 -35 -32 -32 -29 3 -32 6 -33 36 -1 30 2 32 32 32 31
0 33 -2 33 -36z m265 -176 c4 -4 8 -50 8 -102 l2 -96 -32 0 -33 0 0 70 0 70
-35 0 c-33 0 -35 -2 -35 -35 0 -33 -2 -35 -35 -35 l-35 0 0 68 0 67 94 0 c52
0 97 -3 101 -7z m143 -26 c3 -30 2 -32 -31 -32 -28 0 -35 4 -32 18 2 9 4 22 4
29 1 12 27 22 46 19 6 -2 11 -17 13 -34z"/>
<path d="M1810 3085 c0 -33 2 -35 35 -35 33 0 35 2 35 35 0 33 -2 35 -35 35
-33 0 -35 -2 -35 -35z"/>
<path d="M2360 3085 c0 -33 2 -35 33 -35 30 0 32 -2 32 -32 0 -30 3 -33 33
-36 l32 -3 0 70 0 71 -65 0 -65 0 0 -35z"/>
<path d="M2560 2880 l0 -240 240 0 240 0 0 240 0 240 -240 0 -240 0 0 -240z
m410 0 l0 -170 -170 0 -170 0 0 170 0 170 170 0 170 0 0 -170z"/>
<path d="M2700 2880 l0 -100 100 0 100 0 0 100 0 100 -100 0 -100 0 0 -100z"/>
<path d="M852 3018 c3 -30 0 -33 -29 -36 l-33 -3 0 -205 0 -204 29 0 c24 0 30
-5 34 -27 3 -16 4 -41 2 -58 -2 -16 -4 -33 -4 -37 -1 -5 -14 -8 -30 -8 -26 0
-30 4 -33 33 -3 28 -6 32 -33 32 -27 0 -30 4 -33 33 l-3 32 -170 0 -169 0 0
-65 0 -65 -35 0 -35 0 0 65 0 65 -35 0 -35 0 0 -135 0 -136 102 3 102 3 2 33
c2 30 1 32 -32 32 -32 0 -34 2 -34 35 0 34 2 35 36 35 33 0 36 2 32 25 -3 14
-3 27 1 29 6 4 216 10 254 7 12 -1 17 -10 17 -31 0 -28 -3 -30 -35 -30 -33 0
-35 -2 -35 -35 0 -33 2 -35 35 -35 33 0 35 -2 35 -35 l0 -35 -70 0 -70 0 0 35
c0 33 -2 35 -35 35 -33 0 -35 -2 -35 -35 0 -33 -2 -35 -36 -35 -34 0 -35 -1
-32 -32 l3 -33 138 -3 138 -3 -3 -32 c-3 -29 -6 -32 -35 -31 -32 2 -33 0 -33
-36 0 -37 1 -39 33 -37 29 2 32 -1 35 -30 3 -32 2 -33 -32 -33 -34 0 -36 -2
-36 -35 0 -33 2 -35 35 -35 33 0 35 2 35 35 0 33 2 35 35 35 l35 0 0 -70 0
-70 -240 0 -240 0 0 35 0 35 69 0 69 0 -1 33 c-2 28 -6 32 -34 35 -29 3 -33 7
-33 33 0 16 -1 29 -2 29 -2 1 -33 3 -70 6 l-68 6 0 -36 c0 -34 2 -36 35 -36
33 0 35 -2 35 -35 0 -33 -2 -35 -35 -35 -33 0 -35 -2 -35 -35 0 -33 2 -35 35
-35 l35 0 0 -135 0 -135 35 0 c33 0 35 -2 35 -35 l0 -35 -70 0 -70 0 0 -35 c0
-33 2 -35 35 -35 33 0 35 -2 35 -35 0 -33 -2 -35 -35 -35 l-35 0 0 -64 0 -65
32 -3 c29 -3 33 -7 36 -35 3 -32 2 -33 -32 -33 l-36 0 0 -170 0 -170 35 0 35
0 0 170 0 170 35 0 c33 0 35 -2 35 -35 0 -33 2 -35 36 -35 l35 0 -1 58 c-1 31
-1 62 -1 67 1 6 46 9 118 8 65 -2 126 -3 136 -3 12 0 17 -8 17 -30 l0 -30
-105 0 -105 0 0 -34 c0 -32 -3 -35 -32 -38 -32 -3 -33 -4 -34 -53 -3 -88 -2
-85 -34 -85 l-30 0 0 -65 0 -65 35 0 35 0 0 65 0 65 30 0 30 0 0 -65 0 -65 35
0 c32 0 35 3 35 28 0 37 4 39 40 34 25 -4 30 -9 30 -33 0 -27 3 -29 36 -29 34
0 35 1 32 32 -3 29 -7 32 -33 33 -26 0 -30 4 -33 33 -3 31 -2 32 32 32 34 0
36 2 36 35 0 33 2 35 35 35 l35 0 0 -71 0 -70 29 4 c26 4 30 2 33 -24 5 -35 2
-39 -34 -39 -25 0 -28 -3 -28 -36 0 -34 1 -35 33 -32 28 3 32 6 32 33 0 27 4
30 33 33 31 3 32 2 32 -32 0 -33 -2 -36 -29 -36 -23 0 -30 -6 -35 -25 -9 -35
-1 -45 35 -45 27 0 29 -3 29 -35 0 -33 2 -35 35 -35 33 0 35 -2 35 -35 0 -33
-2 -35 -35 -35 -33 0 -35 -2 -35 -35 0 -34 1 -35 35 -31 34 4 35 4 35 -30 0
-32 -2 -34 -34 -34 -32 0 -35 3 -38 33 -2 20 -9 32 -18 33 -47 3 -45 -1 -43
104 l2 100 -35 0 -34 0 0 -135 0 -135 65 0 65 0 0 -35 0 -35 -65 0 -65 0 0
-35 0 -35 65 0 65 0 0 35 c0 33 2 35 35 35 33 0 35 -2 35 -35 l0 -35 70 0 70
0 0 35 0 35 -70 0 -70 0 0 35 c0 33 2 35 35 35 32 0 35 3 35 29 0 23 5 30 27
34 36 7 43 2 43 -34 0 -25 4 -29 29 -29 31 0 43 -16 36 -50 -3 -17 1 -20 36
-20 32 0 40 3 38 18 -4 44 1 52 32 52 28 0 30 2 27 31 l-3 32 -97 -1 -98 0 0
33 c0 31 3 34 32 37 28 3 32 7 33 36 1 30 -1 32 -32 32 -31 0 -33 2 -33 35 0
33 2 35 34 35 31 0 33 -2 32 -32 -1 -30 2 -33 34 -38 31 -4 35 -8 35 -35 0
-27 4 -30 33 -33 29 -3 32 -6 32 -36 0 -31 2 -33 35 -32 33 1 35 3 35 33 0 31
-2 33 -35 33 -33 0 -35 2 -35 35 l0 34 138 3 137 3 0 30 0 30 -67 3 -68 3 0
34 c0 33 2 35 35 35 33 0 35 2 35 35 0 33 2 35 35 35 33 0 34 2 31 30 -2 17
-1 31 3 31 3 1 33 2 66 3 60 1 60 1 63 34 l3 32 -64 0 c-64 0 -65 0 -69 30 -3
17 -2 32 0 35 3 3 50 5 104 5 l98 0 0 35 0 35 -103 0 -104 0 1 -32 1 -33 -68
-3 -68 -3 3 -67 c2 -44 7 -67 16 -68 6 -1 21 -2 32 -3 15 -1 20 -8 20 -31 l0
-30 -70 0 -70 0 0 33 c0 30 -2 32 -32 32 -30 0 -33 3 -36 33 -3 31 -2 32 32
32 34 0 36 2 36 35 0 33 -2 35 -35 35 -33 0 -35 -2 -35 -35 0 -32 -2 -35 -30
-35 -26 0 -31 -5 -36 -30 -4 -16 -9 -30 -13 -31 -3 0 -16 -2 -28 -5 -22 -4
-25 0 -25 31 0 32 3 35 35 35 l34 0 -1 103 -1 102 -35 0 -35 0 0 -65 -1 -65
-67 -3 -67 -3 0 36 c0 33 2 35 35 35 33 0 35 2 35 35 0 34 2 35 36 35 25 0 35
4 31 13 -10 27 12 57 41 57 l30 0 1 101 2 100 -38 -3 -38 -3 0 -102 0 -102
-100 2 -100 2 -3 -33 c-3 -29 -6 -32 -38 -32 -32 0 -34 2 -34 33 l0 34 -62 -1
-63 -1 -3 68 -3 67 31 0 c30 0 37 13 31 58 -1 8 18 12 69 12 l70 0 0 -69 0
-69 68 1 67 2 3 33 c3 31 2 32 -32 32 -34 0 -36 2 -36 35 0 33 -2 35 -35 35
l-35 0 0 70 0 70 35 0 c33 0 35 2 35 33 l0 32 -58 -2 c-69 -2 -79 3 -84 42 -2
22 -9 30 -23 31 -11 1 -26 2 -34 3 -7 1 -11 7 -7 16 10 26 -5 45 -35 45 -27 0
-29 3 -29 36 0 34 1 35 32 32 29 -3 32 -7 33 -33 l0 -30 102 -3 102 -3 3 -66
3 -66 33 -3 32 -4 0 69 0 70 32 3 c51 5 49 68 -3 68 -26 0 -29 3 -29 34 0 32
3 35 32 38 28 3 32 7 32 33 0 26 -4 30 -32 33 -31 3 -32 2 -32 -32 0 -34 -2
-36 -35 -36 -33 0 -35 -2 -35 -35 l0 -35 -70 0 -70 0 0 70 0 70 -29 0 c-24 0
-29 5 -33 30 -4 27 -1 30 28 36 18 3 48 4 68 1 34 -5 35 -4 38 32 3 33 5 36
36 36 29 0 32 2 32 32 l0 32 68 3 67 3 -1 33 -1 32 69 0 68 0 0 -35 0 -34 -67
-3 c-60 -3 -66 -5 -69 -25 -3 -15 4 -26 19 -34 12 -7 23 -12 25 -11 1 1 8 2
15 2 10 0 12 -16 9 -65 l-4 -65 71 0 71 0 0 33 c0 30 -2 32 -32 32 -31 0 -33
2 -33 35 0 33 2 35 33 34 30 -2 32 0 32 32 0 32 2 34 35 34 32 0 35 -2 35 -29
0 -32 12 -40 47 -33 18 3 23 11 23 33 0 26 -3 29 -35 29 -33 0 -35 2 -35 35 0
33 -2 35 -35 35 l-35 0 0 70 0 70 -34 0 c-32 0 -35 3 -38 33 -2 25 -8 32 -25
33 -52 3 -56 -59 -5 -64 29 -3 32 -6 32 -38 l0 -34 -100 0 -100 0 0 35 c0 33
2 35 34 35 l34 0 -2 65 -2 65 33 0 c40 0 45 14 41 125 l-3 80 -32 3 c-29 3
-32 0 -38 -31 -4 -19 -5 -49 -3 -68 3 -32 1 -34 -29 -37 l-33 -3 0 70 0 71
-35 0 -35 0 0 -105 0 -105 -35 0 -35 0 0 70 0 70 -35 0 -35 0 0 70 0 70 35 0
c32 0 35 2 35 30 0 17 -4 31 -10 31 -5 1 -20 2 -32 3 -21 1 -23 6 -26 69 l-3
67 -34 0 c-33 0 -35 -2 -33 -32z m68 -344 c0 -34 -1 -35 -32 -32 -30 3 -33 6
-34 36 0 30 2 32 33 32 31 0 33 -2 33 -36z m70 -169 l0 -65 35 0 35 0 0 65 0
65 35 0 35 0 0 -65 0 -65 -35 0 -35 0 0 -105 0 -105 -70 0 -70 0 0 -34 c0 -32
-2 -34 -32 -31 -28 2 -32 6 -33 31 0 25 -4 29 -32 32 -30 3 -33 6 -33 38 0 31
2 34 30 34 30 0 35 -8 31 -52 -2 -14 5 -18 33 -18 l36 0 0 70 0 70 35 0 c33 0
35 2 35 35 0 33 -2 35 -35 35 l-35 0 0 65 0 65 35 0 35 0 0 -65z m-200 -100
c0 -33 -2 -35 -35 -35 -33 0 -35 2 -35 35 0 33 2 35 35 35 33 0 35 -2 35 -35z
m-210 -615 c0 -23 5 -30 20 -31 11 -1 26 -2 33 -3 6 0 13 -16 15 -33 3 -32 2
-33 -35 -35 -21 0 -64 -2 -97 -4 -59 -2 -79 -14 -73 -44 1 -9 15 -16 35 -18
29 -3 32 -6 32 -38 0 -32 2 -34 35 -34 33 0 35 2 35 35 0 33 2 35 34 35 32 0
35 3 38 32 5 51 68 49 68 -3 0 -26 3 -29 35 -29 33 0 35 -2 35 -35 0 -33 -2
-35 -35 -35 -33 0 -35 -2 -35 -35 0 -33 -2 -35 -35 -35 -33 0 -35 2 -35 35 0
33 -2 35 -35 35 -33 0 -35 -2 -35 -35 l0 -34 -67 -3 c-71 -3 -70 -2 -64 -58 1
-5 15 -10 31 -10 28 0 30 -3 30 -34 l0 -35 -100 2 -100 2 0 33 c0 30 2 32 35
32 33 0 35 2 35 35 0 33 2 35 33 35 l33 0 1 70 1 70 -35 0 -34 0 3 68 c3 59 5
67 23 68 42 2 45 4 41 34 l-3 30 68 0 69 0 0 -30z m210 1 c0 -35 -13 -40 -85
-37 -48 2 -50 3 -53 34 l-3 32 70 0 71 0 0 -29z m-72 -413 c-3 -29 -6 -33 -35
-34 -31 -1 -33 1 -33 32 0 32 2 34 36 34 34 0 35 -1 32 -32z m72 -203 c0 -33
-2 -35 -35 -35 -33 0 -35 -2 -35 -35 0 -33 -2 -35 -35 -35 -33 0 -35 -2 -35
-35 l0 -35 -70 0 -70 0 0 70 0 70 105 0 105 0 0 35 c0 33 2 35 35 35 33 0 35
-2 35 -35z m130 -35 l0 -70 -30 0 c-28 0 -30 3 -31 40 -1 22 -2 50 -3 63 -3
32 2 37 35 37 l29 0 0 -70z m140 35 c0 -33 -2 -35 -35 -35 -33 0 -35 2 -35 35
0 33 2 35 35 35 33 0 35 -2 35 -35z m0 -205 l0 -100 35 0 c33 0 35 2 35 33 0
30 3 33 29 32 34 0 37 -7 36 -80 0 -49 -1 -50 -32 -53 -30 -3 -33 -6 -33 -38
0 -32 -2 -34 -35 -34 -33 0 -35 -2 -35 -35 0 -33 -2 -35 -35 -35 -33 0 -35 2
-35 35 0 33 -2 35 -35 35 -33 0 -35 2 -35 35 l0 35 70 0 70 0 0 35 0 35 -70 0
-70 0 0 65 0 65 35 0 c33 0 35 2 35 35 0 33 2 35 35 35 l35 0 0 -100z m270
-170 l0 -70 -30 0 c-23 0 -31 5 -35 23 -5 18 -2 95 4 115 1 1 15 2 31 2 l30 0
0 -70z"/>
<path d="M650 1585 c0 -33 2 -35 35 -35 33 0 35 2 35 35 0 33 -2 35 -35 35
-33 0 -35 -2 -35 -35z"/>
<path d="M2441 2909 c-18 -7 -22 -15 -19 -34 5 -23 2 -25 -28 -25 -32 0 -34
-2 -34 -35 0 -33 -2 -35 -35 -35 l-35 0 0 -105 0 -105 35 0 35 0 0 106 0 105
33 -3 c30 -3 32 -5 29 -37 -2 -19 -1 -49 3 -67 5 -30 10 -34 35 -34 l30 0 0
134 c0 143 -3 151 -49 135z"/>
<path d="M2426 2553 c-4 -9 -6 -54 -5 -100 l2 -83 33 0 c32 0 34 -2 34 -35 0
-32 -2 -35 -30 -35 -29 0 -32 -3 -34 -45 -1 -15 -9 -21 -33 -23 -30 -3 -33 -6
-33 -36 0 -32 2 -34 33 -31 28 2 32 6 32 31 1 29 1 29 67 32 l67 3 3 -33 3
-32 95 2 c52 1 98 1 103 2 4 0 7 14 7 30 0 27 3 30 30 30 23 0 30 -5 31 -20 2
-35 4 -40 12 -40 4 0 18 0 32 0 24 0 25 2 25 65 l0 65 -100 0 -100 0 0 -35 0
-35 -70 0 -70 0 0 70 0 70 -35 0 c-33 0 -35 2 -35 35 0 33 2 35 35 35 32 0 35
2 35 30 0 23 -5 30 -20 31 -11 1 -26 2 -32 3 -7 0 -14 16 -16 34 -3 28 -7 32
-32 32 -17 0 -30 -7 -34 -17z"/>
<path d="M2562 2538 c3 -30 6 -33 36 -32 l32 1 0 -69 0 -68 70 0 70 0 0 35 c0
32 2 35 29 35 29 0 45 21 39 51 -2 8 8 13 27 13 26 1 30 5 33 34 l3 32 -171 0
-171 0 3 -32z"/>
<path d="M2970 2235 c0 -36 3 -65 8 -66 65 -7 62 -10 62 63 l0 68 -35 0 -35 0
0 -65z"/>
<path d="M240 2197 c0 -34 2 -34 63 -28 4 1 7 15 7 31 0 28 -3 30 -35 30 -33
0 -35 -2 -35 -33z"/>
<path d="M380 2200 c0 -23 5 -30 20 -31 11 -1 26 -2 33 -3 7 -1 12 12 12 32 1
30 -2 32 -32 32 -30 0 -33 -3 -33 -30z"/>
<path d="M449 2155 c0 -5 -2 -18 -4 -27 -4 -21 18 -40 42 -36 14 2 19 -4 21
-29 3 -30 6 -33 38 -33 l34 0 0 68 0 67 -65 0 c-36 0 -65 -4 -66 -10z"/>
<path d="M2220 2131 c0 -41 0 -41 35 -38 34 2 36 4 33 36 -3 31 -7 35 -35 38
-32 4 -33 3 -33 -36z"/>
<path d="M2495 2162 c-13 -13 -4 -61 13 -64 37 -8 53 3 50 36 -3 26 -7 31 -30
32 -15 1 -30 -1 -33 -4z"/>
<path d="M2365 2092 c-3 -3 -5 -34 -5 -69 l0 -63 34 0 c33 0 35 -2 33 -32 l-2
-33 68 -3 67 -3 0 -34 c0 -33 -2 -35 -35 -35 -32 0 -35 -2 -35 -30 0 -22 5
-30 18 -31 114 -7 117 -6 120 29 3 29 6 32 38 32 31 0 34 -3 34 -29 0 -35 18
-43 84 -40 47 3 51 8 47 52 -2 13 5 17 33 17 34 0 36 2 36 35 l0 35 70 0 70 0
0 70 0 70 -35 0 c-33 0 -35 2 -35 33 0 34 -2 34 -62 28 -5 -1 -8 -14 -8 -31 0
-27 -3 -30 -30 -30 -17 0 -30 6 -31 13 -1 6 -2 21 -3 31 -1 15 -8 20 -31 20
-26 0 -30 -4 -33 -32 -3 -29 -6 -32 -38 -32 -32 0 -34 -2 -34 -35 0 -33 -2
-35 -35 -35 -33 0 -35 -2 -35 -35 0 -33 -2 -35 -35 -35 -33 0 -35 2 -35 35 0
33 -2 35 -35 35 -33 0 -35 2 -35 35 0 33 -2 35 -34 35 -31 0 -33 2 -31 29 2
25 -2 30 -26 33 -16 3 -31 2 -34 0z m466 -74 c1 -7 2 -22 3 -33 1 -15 9 -21
34 -23 31 -3 32 -2 32 32 0 34 2 36 35 36 33 0 35 -2 35 -35 0 -33 -2 -35 -35
-35 -33 0 -35 -2 -35 -35 0 -33 -2 -35 -34 -35 -33 0 -35 2 -33 33 2 29 -1 32
-30 35 -30 3 -33 6 -33 38 0 31 2 34 30 34 17 0 30 -6 31 -12z m-61 -163 c0
-33 -2 -35 -35 -35 -33 0 -35 2 -35 35 0 33 2 35 35 35 33 0 35 -2 35 -35z"/>
<path d="M1330 1890 l0 -70 -30 0 c-29 0 -35 -8 -30 -40 3 -20 18 -29 41 -23
16 5 19 0 19 -31 0 -37 7 -42 53 -38 13 1 17 -6 17 -33 l0 -35 -69 0 -70 0 4
29 c4 27 1 29 -38 35 -23 3 -51 4 -62 2 -11 -3 -23 -5 -27 -5 -5 -1 -8 -30 -8
-66 l0 -65 69 0 70 0 -2 -32 c-2 -30 1 -33 30 -36 l32 -3 3 -102 c3 -110 2
-107 61 -98 4 0 7 78 7 171 l0 170 35 0 35 0 0 -70 0 -70 135 0 135 0 0 -35 0
-35 -99 0 -100 0 -3 -32 c-2 -21 -9 -34 -18 -34 -8 -1 -23 -2 -32 -3 -13 -1
-18 -10 -18 -34 0 -34 2 -34 63 -28 4 1 7 14 7 29 0 37 6 41 37 33 24 -6 26
-11 25 -69 l0 -62 139 0 139 0 0 34 0 35 -45 -6 c-25 -3 -56 -2 -70 1 -23 6
-25 10 -25 71 l0 65 35 0 35 0 0 70 0 70 -35 0 -36 0 3 68 3 67 33 -1 c30 -1
32 1 32 33 0 18 3 34 8 34 62 10 62 10 62 -29 0 -39 1 -40 63 -33 4 1 7 30 7
65 l0 65 33 3 c28 3 32 7 35 36 l3 32 -70 0 -71 0 0 -35 c0 -33 -2 -35 -35
-35 -33 0 -35 2 -35 35 0 33 -2 35 -35 35 -33 0 -35 -2 -35 -35 0 -33 2 -35
35 -35 32 0 35 -2 35 -30 0 -16 -1 -30 -2 -30 -2 -1 -28 -3 -58 -6 -75 -7 -79
-9 -76 -38 3 -28 -20 -42 -52 -32 -14 5 -17 17 -17 68 l0 63 -32 3 c-30 3 -33
6 -33 38 l0 34 68 0 67 0 2 35 2 35 -70 0 -69 0 0 -35 c0 -33 -2 -35 -35 -35
-33 0 -35 -2 -35 -35 0 -33 2 -35 35 -35 32 0 35 -2 35 -30 0 -30 -8 -35 -53
-30 -15 1 -18 -5 -15 -37 3 -35 6 -38 33 -38 26 -1 30 -4 33 -33 3 -31 2 -32
-32 -32 -32 0 -35 3 -38 33 -2 20 -8 31 -17 29 -7 -1 -22 0 -32 3 -17 6 -19
18 -19 141 l0 134 -35 0 -35 0 0 -70z m342 -300 c3 -17 2 -32 0 -35 -3 -3 -34
-5 -69 -5 l-63 0 0 35 0 35 64 0 c63 0 64 0 68 -30z"/>
<path d="M2970 1790 c0 -16 5 -30 10 -31 50 -6 55 -3 58 29 3 31 2 32 -32 32
-33 0 -36 -2 -36 -30z"/>
<path d="M2633 1743 c-3 -6 -3 -22 -1 -35 2 -18 10 -23 36 -25 31 -1 32 0 32
37 0 38 -1 39 -31 37 -17 -1 -34 -7 -36 -14z"/>
<path d="M2907 1753 c-4 -3 -7 -21 -7 -38 0 -29 3 -32 35 -33 34 -1 35 -1 35
38 0 37 -2 40 -28 40 -16 0 -32 -3 -35 -7z"/>
<path d="M2441 1681 c-7 -5 -15 -20 -16 -35 -3 -23 0 -26 31 -26 32 0 34 -2
34 -34 0 -32 -3 -35 -32 -38 -21 -2 -34 -9 -34 -18 -1 -8 -2 -23 -3 -32 -1
-13 -10 -18 -31 -18 l-30 0 0 70 0 70 -172 -2 -173 -3 -1 -83 c-2 -113 1 -124
40 -120 33 3 32 0 35 93 l1 45 100 0 100 0 0 -35 c0 -33 -2 -35 -35 -35 -33 0
-35 -2 -35 -35 l0 -35 -69 0 -68 0 1 -97 1 -98 33 -3 c29 -3 32 -6 32 -38 0
-32 -2 -34 -34 -34 -32 0 -33 2 -31 35 1 35 1 36 -34 33 -31 -3 -35 -6 -38
-35 -4 -30 -2 -32 34 -35 35 -3 38 -5 39 -35 1 -31 -1 -33 -31 -33 -28 0 -33
-4 -38 -27 -7 -37 -2 -43 39 -43 28 0 35 -4 33 -17 -4 -40 1 -55 16 -49 34 13
45 -4 45 -71 l0 -64 -32 3 c-29 3 -33 6 -33 33 0 28 -3 30 -38 33 -36 3 -38 5
-33 33 4 26 1 29 -22 30 -15 1 -30 1 -34 0 -5 0 -8 15 -8 34 0 33 -2 35 -35
35 l-35 0 0 -65 0 -65 -35 0 c-33 0 -35 2 -35 33 0 30 -2 32 -35 33 -33 1 -35
-1 -35 -32 l0 -33 -67 -3 -68 -3 -3 -67 -4 -67 38 -3 c35 -3 38 -6 39 -33 0
-27 -4 -31 -35 -35 l-35 -5 -1 -62 c0 -38 4 -64 10 -64 15 -2 65 -6 99 -8 23
-1 27 -5 27 -30 0 -26 -4 -30 -32 -33 -29 -3 -33 -6 -33 -33 l0 -30 68 -3 67
-3 0 -34 c0 -33 2 -35 35 -35 33 0 35 2 35 35 0 33 2 35 35 35 33 0 35 -2 35
-35 0 -33 2 -35 33 -35 30 0 32 2 31 32 -1 29 -4 33 -32 36 -29 3 -32 6 -32
38 l0 35 67 -3 67 -3 0 -65 1 -65 32 -3 32 -3 3 103 3 103 33 -3 c31 -3 32 -2
32 32 0 34 -2 36 -35 36 -33 0 -35 -2 -35 -34 l0 -34 -67 2 -68 1 0 30 c0 27
4 31 35 35 25 4 35 10 34 23 -1 9 -2 24 -3 32 -1 10 -12 15 -36 15 -36 0 -40
6 -29 48 6 20 12 22 70 22 l64 0 0 -35 c0 -33 2 -35 35 -35 l35 0 0 105 0 105
35 0 c33 0 35 -2 35 -35 0 -33 2 -35 35 -35 33 0 35 -2 35 -35 0 -33 -2 -35
-35 -35 -33 0 -35 -2 -35 -35 l0 -35 68 0 69 0 -1 -65 c-1 -36 -5 -65 -11 -65
-5 0 -20 -3 -32 -6 -21 -6 -23 -3 -23 30 0 34 -1 36 -35 36 -32 0 -35 -2 -35
-30 0 -16 5 -31 10 -31 6 -1 15 -3 20 -4 6 -1 17 -3 25 -4 10 -1 15 -12 15
-31 l0 -30 65 0 65 0 0 65 0 65 105 0 105 0 0 -30 c0 -16 -3 -30 -7 -31 -5 0
-35 -2 -68 -3 l-60 -2 -3 -67 -3 -67 -34 0 c-33 0 -35 -2 -35 -35 l0 -35 70 0
70 0 0 70 0 70 70 0 70 0 0 -35 c0 -33 -2 -35 -35 -35 -33 0 -35 -2 -35 -35 0
-33 2 -35 35 -35 33 0 35 2 35 35 0 32 3 35 29 35 32 0 40 12 33 47 -3 18 -11
23 -33 23 -25 0 -29 4 -29 29 0 30 28 50 50 36 10 -6 12 0 14 40 1 18 9 20
104 23 l102 3 0 34 c0 33 -2 35 -35 35 -33 0 -35 2 -35 35 0 33 -2 35 -35 35
-33 0 -35 -2 -35 -35 0 -33 -2 -35 -35 -35 -29 0 -34 -3 -33 -22 2 -43 -2 -48
-32 -48 -28 0 -30 3 -30 35 0 32 2 35 29 35 35 0 45 12 37 46 -5 19 -13 24
-36 24 -28 0 -30 3 -30 35 l0 35 135 0 135 0 0 35 0 35 -103 0 -104 0 1 63 1
62 -67 3 -68 3 0 34 c0 33 2 35 35 35 33 0 35 2 35 35 0 33 2 35 33 35 l32 0
-2 -70 -1 -70 34 0 c32 0 34 2 34 35 0 33 2 35 35 35 33 0 35 2 35 35 0 33 2
35 35 35 l35 0 0 64 0 63 -61 7 c-34 3 -65 3 -70 0 -5 -3 -9 -19 -9 -35 0 -28
-2 -30 -32 -27 -25 2 -33 8 -34 23 -2 42 -4 47 -19 41 -26 -10 -45 5 -45 35 0
26 9 34 34 30 25 -5 34 24 35 114 l2 95 -71 0 -70 0 0 35 c0 33 2 35 35 35 32
0 35 2 35 30 0 17 -3 31 -7 31 -49 8 -58 3 -61 -28 -3 -30 -6 -33 -37 -33 -31
0 -34 3 -37 33 l-3 32 -85 3 c-47 1 -91 -2 -99 -7z m189 -96 c0 -33 2 -35 35
-35 33 0 35 -2 35 -35 0 -33 -2 -35 -35 -35 l-35 0 0 -69 0 -68 -32 1 c-30 1
-33 5 -36 34 -3 29 -6 32 -38 32 -32 0 -34 2 -34 35 l0 35 70 0 70 0 0 35 c0
33 -2 35 -35 35 -33 0 -35 2 -35 35 0 33 2 35 35 35 33 0 35 -2 35 -35z m-268
-207 c3 -29 7 -33 36 -36 29 -3 32 -6 27 -29 -6 -37 -22 -44 -82 -40 l-53 3 0
-33 0 -33 70 0 70 0 -4 34 c-5 33 -4 34 30 34 32 0 34 -2 34 -34 0 -32 2 -34
34 -34 32 0 35 3 38 32 5 51 68 49 68 -3 l0 -29 70 0 70 0 0 -35 0 -35 -105 0
-105 0 0 -35 c0 -33 2 -35 35 -35 33 0 35 -2 35 -35 0 -33 -2 -35 -35 -35 -33
0 -35 -2 -35 -36 0 -34 -1 -35 -32 -31 -29 3 -33 7 -36 35 l-3 32 -65 0 -64 0
0 -35 c0 -19 3 -34 8 -34 4 1 18 1 32 0 24 -1 25 -4 25 -66 l1 -65 -33 0 c-31
0 -33 2 -33 35 0 33 -2 35 -35 35 -33 0 -35 2 -35 33 0 32 -2 34 -32 33 -30
-1 -33 2 -36 32 -3 29 -6 32 -38 32 -32 0 -34 2 -34 35 0 33 2 35 35 35 l35 0
0 70 0 70 -35 0 -35 0 0 65 c0 67 0 67 48 68 18 0 22 5 22 33 l0 34 69 0 70 0
3 -32z m-552 -543 c0 -33 2 -35 35 -35 33 0 35 2 35 35 0 33 2 35 35 35 l35 0
0 -70 0 -70 -35 0 -35 0 0 -70 0 -70 35 0 c33 0 35 2 35 36 0 34 1 35 32 32
32 -3 35 -8 29 -58 0 -5 -14 -10 -31 -10 l-30 0 0 -65 0 -65 -70 0 -70 0 0 35
c0 36 0 36 35 29 35 -6 35 -6 35 30 l0 36 -70 0 -70 0 0 35 c0 33 2 35 35 35
33 0 35 2 35 35 0 33 -2 35 -35 35 l-35 0 0 70 0 70 35 0 c33 0 35 -2 35 -35z
m890 -70 l0 -105 -105 0 -105 0 0 105 0 105 105 0 105 0 0 -105z"/>
<path d="M2360 1105 l0 -35 -70 0 -70 0 0 -35 0 -35 70 0 70 0 0 35 0 35 65 0
65 0 0 -35 c0 -33 2 -35 35 -35 33 0 35 2 35 35 0 33 -2 35 -35 35 -33 0 -35
2 -35 35 l0 35 -65 0 -65 0 0 -35z"/>
<path d="M2560 765 c0 -33 2 -35 35 -35 33 0 35 2 35 35 0 33 -2 35 -35 35
-33 0 -35 -2 -35 -35z"/>
<path d="M2844 1683 c-7 -5 -12 -20 -12 -35 0 -25 4 -28 34 -28 32 0 34 -2 34
-35 0 -33 2 -35 35 -35 l35 0 0 -70 0 -70 -36 0 c-34 0 -35 -1 -32 -32 l3 -33
68 -3 67 -3 0 106 0 105 -35 0 c-33 0 -35 2 -35 35 0 33 2 35 36 35 34 0 35 1
32 33 -3 31 -12 36 -60 28 -5 0 -8 -14 -8 -31 0 -28 -3 -30 -34 -30 -32 0 -35
3 -38 33 -3 33 -29 47 -54 30z"/>
<path d="M1880 1515 c0 -33 2 -35 35 -35 33 0 35 2 35 35 0 33 -2 35 -35 35
-33 0 -35 -2 -35 -35z"/>
<path d="M858 1398 c-3 -7 -2 -23 0 -35 3 -18 11 -23 33 -23 26 0 29 3 29 35
0 32 -2 35 -29 35 -16 0 -31 -5 -33 -12z"/>
<path d="M1968 1342 c-23 -5 -25 -57 -2 -66 22 -9 53 11 49 31 -2 10 -4 21 -4
24 -1 10 -24 16 -43 11z"/>
<path d="M1400 1175 c0 -33 2 -35 35 -35 33 0 35 2 35 35 0 33 -2 35 -35 35
-33 0 -35 -2 -35 -35z"/>
<path d="M1880 1105 c0 -33 2 -35 35 -35 33 0 35 2 35 35 0 33 -2 35 -35 35
-33 0 -35 -2 -35 -35z"/>
<path d="M2972 968 c3 -29 6 -33 33 -33 27 0 30 4 33 33 3 31 2 32 -33 32 -35
0 -36 -1 -33 -32z"/>
<path d="M240 560 l0 -240 240 0 240 0 0 240 0 240 -240 0 -240 0 0 -240z
m410 0 l0 -170 -170 0 -170 0 0 170 0 170 170 0 170 0 0 -170z"/>
<path d="M380 560 l0 -100 100 0 100 0 0 100 0 100 -100 0 -100 0 0 -100z"/>
<path d="M1470 556 c0 -27 4 -34 18 -31 9 2 25 4 35 4 12 1 17 9 17 31 0 28
-3 30 -35 30 -33 0 -35 -2 -35 -34z"/>
<path d="M2900 425 c0 -33 2 -35 35 -35 33 0 35 2 35 35 0 33 -2 35 -35 35
-33 0 -35 -2 -35 -35z"/>
<path d="M1330 355 l0 -35 173 2 172 3 0 30 0 30 -172 3 -173 2 0 -35z"/>
<path d="M2220 355 c0 -33 2 -35 35 -35 33 0 35 2 35 35 0 33 -2 35 -35 35
-33 0 -35 -2 -35 -35z"/>
<path d="M2360 356 c0 -35 1 -36 36 -36 34 0 35 1 31 33 -3 28 -7 32 -35 35
-31 3 -32 2 -32 -32z"/>
</g>
</svg>
