<svg xmlns="http://www.w3.org/2000/svg" width="1365" height="1365" viewBox="0 0 1365 1365" version="1.1"><path d="M 517.464 346.326 C 515.795 346.972, 510.561 350.093, 505.835 353.262 C 483.387 368.313, 461.491 374.877, 433 375.096 C 425.575 375.153, 418.416 375.503, 417.090 375.873 C 413.515 376.874, 410.605 381.381, 410.548 386.005 L 410.500 389.994 405.702 389.997 C 401.812 389.999, 400.445 390.496, 398.475 392.622 C 395.257 396.094, 394.402 400.943, 396.346 404.701 C 398.244 408.373, 399.583 409.448, 404 410.851 C 420.941 416.230, 446.165 413.037, 476.948 401.615 C 483.795 399.075, 489.739 397.339, 490.158 397.758 C 491.717 399.317, 482.881 433.295, 473.420 462.124 L 467.965 478.748 462.849 480.874 C 460.035 482.043, 457.363 483, 456.911 483 C 456.459 483, 456.749 481.130, 457.555 478.844 C 458.362 476.558, 458.808 474.474, 458.547 474.213 C 457.219 472.886, 432.010 484.896, 421.802 491.719 C 413.108 497.530, 389.012 521.063, 385.165 527.500 C 379.841 536.408, 377.680 545.699, 378.202 557.432 C 378.590 566.163, 379.100 568.614, 381.669 574.085 C 385.586 582.428, 388.663 585.954, 395.068 589.440 C 398.813 591.479, 402.184 592.423, 406.923 592.762 C 421.042 593.773, 432.533 589.136, 445.105 577.357 C 449.722 573.031, 455.408 567.996, 457.741 566.169 C 463.582 561.593, 473.780 547.715, 479.802 536.147 C 485.425 525.348, 495.405 502.071, 494.710 501.377 C 494.463 501.129, 491.898 501.858, 489.011 502.996 C 484.154 504.910, 483.815 504.932, 484.483 503.282 C 484.880 502.302, 485.638 500.305, 486.167 498.845 C 487.279 495.778, 490.326 494.321, 511.989 486.500 C 529.512 480.174, 541.820 475.123, 551.108 470.445 C 559.780 466.079, 560.153 466.676, 556.624 479.255 C 545.877 517.562, 545.184 545.735, 554.523 564.713 C 558.130 572.042, 562.649 576.688, 570 580.625 C 572.887 582.172, 575.690 582.500, 586 582.500 C 600.250 582.500, 605.545 580.959, 616.500 573.622 C 623.056 569.231, 635.257 557.254, 640.235 550.322 L 643.384 545.938 644.668 550.954 C 649.580 570.149, 664.171 581.064, 684.799 580.976 C 695.667 580.929, 702.928 578.487, 715.145 570.771 C 722.528 566.108, 722.938 565.977, 727.145 566.947 C 733.422 568.394, 746.533 568.199, 753.509 566.553 C 765.928 563.624, 777.424 556.916, 789.097 545.789 C 792.726 542.330, 798.875 536.693, 802.763 533.262 C 808.284 528.389, 810.179 525.982, 811.422 522.262 C 813.152 517.085, 823.761 502.027, 825.691 502.010 C 826.346 502.005, 827.120 502.386, 827.412 502.858 C 828.258 504.227, 803.873 575.895, 791.127 609.500 L 786.196 622.500 769.598 622.774 L 753 623.048 753 629.024 L 753 635 747 635 C 741.267 635, 741 635.111, 741 637.500 C 741 639.333, 740.467 640, 739 640 C 737.157 640, 737 639.333, 737 631.500 L 737 623 728.500 623 L 720 623 720 629 L 720 635 713.500 635 L 707 635 707 702 L 707 769 715.500 769 L 724 769 724 763 L 724 757 730.500 757 L 737 757 737 713 C 737 669.667, 737.030 669, 739 669 C 740.843 669, 741 668.333, 741 660.500 L 741 652 757.500 652 L 774 652 774 646 L 774 640 778.487 640 C 782.636 640, 783.079 640.253, 784.381 643.369 C 786.216 647.762, 789.538 650, 794.223 650 C 798.724 650, 800.905 648.095, 804.483 641.034 C 806.618 636.820, 807.484 636, 809.794 636 C 816.612 636, 819.989 629.834, 830.433 598.318 C 836.863 578.913, 837.062 578.021, 835.589 575.173 C 830.318 564.980, 833.823 554.804, 844.624 548.938 C 847.136 547.574, 848.246 545.230, 853.391 530.438 C 862.260 504.938, 864.535 499.625, 870.969 489.388 C 874.214 484.224, 876.658 480, 876.399 480 C 876.141 480, 874.708 480.728, 873.215 481.618 C 871.722 482.507, 873.532 480.267, 877.237 476.639 C 888.757 465.359, 902.485 460.342, 909.580 464.820 C 918.959 470.739, 918.046 487.608, 907.229 508.252 C 902.539 517.204, 891.120 532.633, 888.418 533.670 C 885.928 534.625, 885.665 533.281, 887.760 530.308 C 889.803 527.409, 894 519.494, 894 518.540 C 894 517.602, 881.659 517.967, 877.882 519.016 C 872.204 520.593, 867.694 524.133, 865.283 528.904 C 863.715 532.005, 861.954 533.789, 859.274 534.989 C 854.120 537.296, 849.351 542.966, 848.543 547.744 C 847.077 556.424, 852.415 566.467, 860.429 570.107 C 868.625 573.830, 881.933 571.317, 892.233 564.102 L 897.854 560.165 913.177 560.724 C 925.361 561.168, 930.241 560.933, 937 559.574 C 955.794 555.796, 969.321 548.931, 983.446 536 C 987.953 531.875, 994.567 525.953, 998.145 522.840 C 1007.710 514.518, 1016.117 503.142, 1016.731 497.690 C 1017.582 490.144, 1013.637 485, 1007 485 C 1002.508 485, 1000.382 486.357, 992.330 494.368 C 981.213 505.428, 973.736 512.422, 971 514.322 L 968.500 516.058 971 514.909 C 972.926 514.024, 972.476 514.821, 969.042 518.380 C 963.788 523.825, 961.621 524.497, 965.432 519.500 C 968.513 515.461, 968.285 515.304, 963.150 517.923 C 956.865 521.130, 938.369 524.964, 936.063 523.539 C 935.583 523.242, 938.537 516.362, 942.626 508.250 C 953.647 486.385, 957.599 467.475, 953.986 453.894 C 952.106 446.829, 946.989 438.160, 942.220 433.962 C 928.406 421.802, 905.110 423.814, 888.174 438.629 C 882.540 443.557, 882.377 443.374, 884.520 434.500 C 887.694 421.353, 885.791 412.064, 879.374 409.383 C 872.253 406.408, 868.791 408.224, 857.976 420.610 C 856.589 422.199, 854.035 424.247, 852.303 425.160 C 850.143 426.298, 845.930 431.640, 838.897 442.160 C 825.984 461.477, 810.703 482.985, 802.069 494 C 798.404 498.675, 793.256 505.529, 790.628 509.231 C 785.229 516.839, 775.728 527.580, 770.203 532.322 C 766.664 535.359, 767.158 534.065, 771.373 529.254 C 774.053 526.195, 773.110 525.697, 768.030 527.489 C 765.675 528.320, 762.448 529, 760.857 529 L 757.966 529 760.383 524.231 C 764.395 516.314, 770.818 496.003, 771.943 487.678 C 776.871 451.204, 761.994 425.170, 736.011 424.802 C 728.894 424.701, 707.485 430.222, 699.643 434.180 C 694.245 436.905, 686.159 443.928, 670.430 459.550 C 661.990 467.934, 653.980 480.931, 649.842 492.959 C 645.810 504.678, 619.851 541.002, 609.762 549.043 L 605.500 552.439 608.071 548.969 C 612.377 543.158, 612.396 543.026, 608.776 544.064 C 591.952 548.889, 583.757 534.414, 587.420 506.342 C 590.136 485.520, 600.356 448.512, 607.579 433.341 C 610.030 428.194, 613.465 423.550, 619.801 416.820 C 635.638 399.998, 644.203 384.778, 644.843 372.324 C 645.154 366.270, 644.853 364.511, 642.921 361.074 C 636.465 349.586, 620.599 351.283, 611.125 364.476 C 609.330 366.975, 606.631 369.656, 605.129 370.433 C 597.622 374.315, 590.679 385.404, 582.275 406.934 C 574.924 425.766, 572.687 429.575, 566.722 433.421 C 563.850 435.273, 561.351 436.649, 561.169 436.480 C 560.987 436.310, 561.361 435.194, 562 434 C 562.639 432.806, 563.003 431.670, 562.809 431.476 C 562.615 431.282, 557.086 433.782, 550.521 437.031 C 537.583 443.435, 516.422 451.376, 514.382 450.593 C 512.998 450.062, 513.549 447.735, 523.518 412 C 530.149 388.228, 533.901 371.091, 534.677 361.033 C 535.230 353.860, 535.120 353.296, 532.566 350.261 C 531.080 348.495, 528.219 346.599, 526.186 346.035 C 521.771 344.809, 521.352 344.823, 517.464 346.326 M 711.799 465.669 C 709.480 467.158, 703.152 476.796, 704.151 477.318 C 704.343 477.418, 706.285 478.400, 708.466 479.500 C 711.020 480.787, 713.514 483.254, 715.466 486.423 C 718.370 491.135, 718.495 491.799, 718.387 501.923 C 718.310 509.142, 717.627 514.881, 716.235 520 C 714.384 526.808, 714.340 527.661, 715.753 529.250 C 718.949 532.842, 720.915 531.459, 724.994 522.750 C 730.001 512.059, 732.926 501.500, 733.674 491.407 C 734.472 480.664, 732.896 474.267, 728.131 468.897 C 724.917 465.276, 723.819 464.698, 719.475 464.342 C 715.911 464.050, 713.734 464.427, 711.799 465.669 M 673.466 499.482 C 670.151 506.976, 667.332 517.374, 666.505 525.157 C 665.952 530.358, 666.222 532.545, 668.007 537.304 C 670.432 543.769, 679.198 557.478, 681.463 558.347 C 685.480 559.889, 702 554.563, 702 551.726 C 702 551.228, 699.715 548.273, 696.921 545.160 C 686.344 533.371, 679.469 517.698, 678.304 502.716 C 677.971 498.434, 677.306 494.689, 676.826 494.393 C 676.347 494.096, 674.834 496.387, 673.466 499.482 M 441.024 514.063 C 427.126 520.806, 414.274 528.989, 409.054 534.417 C 404.897 538.739, 405.409 538.886, 411.706 535.175 L 416.500 532.350 416.546 538.425 C 416.608 546.539, 419.139 551.712, 424.140 553.951 L 427.932 555.649 424.434 560.960 C 422.511 563.881, 421.114 566.447, 421.330 566.663 C 422.425 567.758, 432.728 556.721, 438.083 548.715 C 446.757 535.747, 457 514.691, 457 509.828 C 457 506.899, 454.330 507.606, 441.024 514.063 M 486 596 L 486 602 480 602 C 474.667 602, 474 602.222, 474 604 C 474 605.333, 473.333 606, 472 606 C 470.333 606, 470 606.667, 470 610 C 470 613.333, 470.333 614, 472 614 C 473.333 614, 474 614.667, 474 616 C 474 617.843, 473.333 618, 465.500 618 L 457 618 457 685 L 457 752 465.500 752 L 474 752 474 760.500 L 474 769 507.500 769 L 541 769 541 760.500 C 541 753.611, 541.284 752, 542.500 752 C 543.433 752, 544 752.944, 544 754.500 C 544 756.796, 544.367 757, 548.500 757 C 552.633 757, 553 756.796, 553 754.500 C 553 752.667, 553.533 752, 555 752 C 556.778 752, 557 751.333, 557 746 L 557 740 563.524 740 L 570.048 740 569.774 723.250 L 569.500 706.500 561.250 706.210 L 553 705.919 553 711.960 L 553 718 546.500 718 L 540 718 540 734.500 L 540 751 534 751 L 528 751 528 745.500 L 528 740 507.500 740 L 487 740 487 685 L 487 630 480.500 630 L 474 630 474 624.500 L 474 619 507 619 L 540 619 540 635.500 L 540 652 548.500 652 L 557 652 557 646 L 557 640 563.524 640 L 570.048 640 569.774 623.250 L 569.500 606.500 561.250 606.210 L 553 605.919 553 597.960 L 553 590 519.500 590 L 486 590 486 596 M 541 612.500 L 541 618 547 618 L 553 618 553 612.500 L 553 607 547 607 L 541 607 541 612.500 M 620 629 L 620 635 613.500 635 C 607.233 635, 607 635.090, 607 637.500 C 607 639.333, 606.467 640, 605 640 C 603.381 640, 603 640.667, 603 643.500 C 603 646.333, 603.381 647, 605 647 C 606.467 647, 607 647.667, 607 649.500 C 607 651.971, 606.900 652, 598.500 652 L 590 652 590 702 L 590 752 598.500 752 L 607 752 607 760.517 L 607 769.034 632.250 768.767 L 657.500 768.500 657.790 760.250 C 658.017 753.818, 658.402 752, 659.540 752 C 660.431 752, 661 752.975, 661 754.500 C 661 756.796, 661.367 757, 665.500 757 C 669.633 757, 670 756.796, 670 754.500 C 670 752.667, 670.533 752, 672 752 C 673.778 752, 674 751.333, 674 746 L 674 740 680.500 740 L 687 740 687 690 L 687 640 678.500 640 L 670 640 670 631.500 L 670 623 645 623 L 620 623 620 629 M 837 629 L 837 635 830.500 635 C 824.233 635, 824 635.090, 824 637.500 C 824 639.333, 823.467 640, 822 640 C 820.381 640, 820 640.667, 820 643.500 C 820 646.333, 820.381 647, 822 647 C 823.467 647, 824 647.667, 824 649.500 C 824 651.971, 823.901 652, 815.492 652 L 806.984 652 807.242 710.250 L 807.500 768.500 816 768.500 L 824.500 768.500 824.800 762.750 L 825.100 757 831.050 757 L 837 757 837 710 L 837 663 831 663 L 825 663 825 657.500 L 825 652 849.500 652 L 874 652 874 710.500 L 874 769 882.500 769 L 891 769 891 763 L 891 757 897.500 757 L 904 757 904 698.500 L 904 640 895.500 640 L 887 640 887 631.500 L 887 623 862 623 L 837 623 837 629 M 658 646 L 658 652 664 652 L 670 652 670 646 L 670 640 664 640 L 658 640 658 646 M 875 646 L 875 652 881 652 L 887 652 887 646 L 887 640 881 640 L 875 640 875 646 M 728 649.500 C 728 651.910, 728.233 652, 734.500 652 C 740.767 652, 741 651.910, 741 649.500 C 741 647.090, 740.767 647, 734.500 647 C 728.233 647, 728 647.090, 728 649.500 M 608 657.500 L 608 663 614 663 L 620 663 620 701.500 L 620 740 614 740 L 608 740 608 745.500 L 608 751 614 751 L 620 751 620 745.500 L 620 740 632.500 740 L 645 740 645 745.500 L 645 751 651 751 L 657 751 657 701.500 L 657 652 632.500 652 L 608 652 608 657.500 M 724 674.500 C 724 679.333, 724.242 680, 726 680 C 727.758 680, 728 679.333, 728 674.500 C 728 669.667, 727.758 669, 726 669 C 724.242 669, 724 669.667, 724 674.500 M 474 745.500 L 474 751 480 751 L 486 751 486 745.500 L 486 740 480 740 L 474 740 474 745.500" stroke="none" fill="#ffde59" fill-rule="evenodd"/><path d="M 0 682.501 L 0 1365.001 682.750 1364.751 L 1365.500 1364.500 1365.751 682.250 L 1366.001 -0 683.001 -0 L 0 0 0 682.501 M 0.497 683 C 0.497 1058.375, 0.611 1211.938, 0.750 1024.250 C 0.889 836.563, 0.889 529.438, 0.750 341.750 C 0.611 154.063, 0.497 307.625, 0.497 683 M 517.464 346.326 C 515.795 346.972, 510.561 350.093, 505.835 353.262 C 483.387 368.313, 461.491 374.877, 433 375.096 C 425.575 375.153, 418.416 375.503, 417.090 375.873 C 413.515 376.874, 410.605 381.381, 410.548 386.005 L 410.500 389.994 405.702 389.997 C 401.812 389.999, 400.445 390.496, 398.475 392.622 C 395.257 396.094, 394.402 400.943, 396.346 404.701 C 398.244 408.373, 399.583 409.448, 404 410.851 C 420.941 416.230, 446.165 413.037, 476.948 401.615 C 483.795 399.075, 489.739 397.339, 490.158 397.758 C 491.717 399.317, 482.881 433.295, 473.420 462.124 L 467.965 478.748 462.849 480.874 C 460.035 482.043, 457.363 483, 456.911 483 C 456.459 483, 456.749 481.130, 457.555 478.844 C 458.362 476.558, 458.808 474.474, 458.547 474.213 C 457.219 472.886, 432.010 484.896, 421.802 491.719 C 413.108 497.530, 389.012 521.063, 385.165 527.500 C 379.841 536.408, 377.680 545.699, 378.202 557.432 C 378.590 566.163, 379.100 568.614, 381.669 574.085 C 385.586 582.428, 388.663 585.954, 395.068 589.440 C 398.813 591.479, 402.184 592.423, 406.923 592.762 C 421.042 593.773, 432.533 589.136, 445.105 577.357 C 449.722 573.031, 455.408 567.996, 457.741 566.169 C 463.582 561.593, 473.780 547.715, 479.802 536.147 C 485.425 525.348, 495.405 502.071, 494.710 501.377 C 494.463 501.129, 491.898 501.858, 489.011 502.996 C 484.154 504.910, 483.815 504.932, 484.483 503.282 C 484.880 502.302, 485.638 500.305, 486.167 498.845 C 487.279 495.778, 490.326 494.321, 511.989 486.500 C 529.512 480.174, 541.820 475.123, 551.108 470.445 C 559.780 466.079, 560.153 466.676, 556.624 479.255 C 545.877 517.562, 545.184 545.735, 554.523 564.713 C 558.130 572.042, 562.649 576.688, 570 580.625 C 572.887 582.172, 575.690 582.500, 586 582.500 C 600.250 582.500, 605.545 580.959, 616.500 573.622 C 623.056 569.231, 635.257 557.254, 640.235 550.322 L 643.384 545.938 644.668 550.954 C 649.580 570.149, 664.171 581.064, 684.799 580.976 C 695.667 580.929, 702.928 578.487, 715.145 570.771 C 722.528 566.108, 722.938 565.977, 727.145 566.947 C 733.422 568.394, 746.533 568.199, 753.509 566.553 C 765.928 563.624, 777.424 556.916, 789.097 545.789 C 792.726 542.330, 798.875 536.693, 802.763 533.262 C 808.284 528.389, 810.179 525.982, 811.422 522.262 C 813.152 517.085, 823.761 502.027, 825.691 502.010 C 826.346 502.005, 827.120 502.386, 827.412 502.858 C 828.258 504.227, 803.873 575.895, 791.127 609.500 L 786.196 622.500 769.598 622.774 L 753 623.048 753 629.024 L 753 635 747 635 C 741.267 635, 741 635.111, 741 637.500 C 741 639.333, 740.467 640, 739 640 C 737.157 640, 737 639.333, 737 631.500 L 737 623 728.500 623 L 720 623 720 629 L 720 635 713.500 635 L 707 635 707 702 L 707 769 715.500 769 L 724 769 724 763 L 724 757 730.500 757 L 737 757 737 713 C 737 669.667, 737.030 669, 739 669 C 740.843 669, 741 668.333, 741 660.500 L 741 652 757.500 652 L 774 652 774 646 L 774 640 778.487 640 C 782.636 640, 783.079 640.253, 784.381 643.369 C 786.216 647.762, 789.538 650, 794.223 650 C 798.724 650, 800.905 648.095, 804.483 641.034 C 806.618 636.820, 807.484 636, 809.794 636 C 816.612 636, 819.989 629.834, 830.433 598.318 C 836.863 578.913, 837.062 578.021, 835.589 575.173 C 830.318 564.980, 833.823 554.804, 844.624 548.938 C 847.136 547.574, 848.246 545.230, 853.391 530.438 C 862.260 504.938, 864.535 499.625, 870.969 489.388 C 874.214 484.224, 876.658 480, 876.399 480 C 876.141 480, 874.708 480.728, 873.215 481.618 C 871.722 482.507, 873.532 480.267, 877.237 476.639 C 888.757 465.359, 902.485 460.342, 909.580 464.820 C 918.959 470.739, 918.046 487.608, 907.229 508.252 C 902.539 517.204, 891.120 532.633, 888.418 533.670 C 885.928 534.625, 885.665 533.281, 887.760 530.308 C 889.803 527.409, 894 519.494, 894 518.540 C 894 517.602, 881.659 517.967, 877.882 519.016 C 872.204 520.593, 867.694 524.133, 865.283 528.904 C 863.715 532.005, 861.954 533.789, 859.274 534.989 C 854.120 537.296, 849.351 542.966, 848.543 547.744 C 847.077 556.424, 852.415 566.467, 860.429 570.107 C 868.625 573.830, 881.933 571.317, 892.233 564.102 L 897.854 560.165 913.177 560.724 C 925.361 561.168, 930.241 560.933, 937 559.574 C 955.794 555.796, 969.321 548.931, 983.446 536 C 987.953 531.875, 994.567 525.953, 998.145 522.840 C 1007.710 514.518, 1016.117 503.142, 1016.731 497.690 C 1017.582 490.144, 1013.637 485, 1007 485 C 1002.508 485, 1000.382 486.357, 992.330 494.368 C 981.213 505.428, 973.736 512.422, 971 514.322 L 968.500 516.058 971 514.909 C 972.926 514.024, 972.476 514.821, 969.042 518.380 C 963.788 523.825, 961.621 524.497, 965.432 519.500 C 968.513 515.461, 968.285 515.304, 963.150 517.923 C 956.865 521.130, 938.369 524.964, 936.063 523.539 C 935.583 523.242, 938.537 516.362, 942.626 508.250 C 953.647 486.385, 957.599 467.475, 953.986 453.894 C 952.106 446.829, 946.989 438.160, 942.220 433.962 C 928.406 421.802, 905.110 423.814, 888.174 438.629 C 882.540 443.557, 882.377 443.374, 884.520 434.500 C 887.694 421.353, 885.791 412.064, 879.374 409.383 C 872.253 406.408, 868.791 408.224, 857.976 420.610 C 856.589 422.199, 854.035 424.247, 852.303 425.160 C 850.143 426.298, 845.930 431.640, 838.897 442.160 C 825.984 461.477, 810.703 482.985, 802.069 494 C 798.404 498.675, 793.256 505.529, 790.628 509.231 C 785.229 516.839, 775.728 527.580, 770.203 532.322 C 766.664 535.359, 767.158 534.065, 771.373 529.254 C 774.053 526.195, 773.110 525.697, 768.030 527.489 C 765.675 528.320, 762.448 529, 760.857 529 L 757.966 529 760.383 524.231 C 764.395 516.314, 770.818 496.003, 771.943 487.678 C 776.871 451.204, 761.994 425.170, 736.011 424.802 C 728.894 424.701, 707.485 430.222, 699.643 434.180 C 694.245 436.905, 686.159 443.928, 670.430 459.550 C 661.990 467.934, 653.980 480.931, 649.842 492.959 C 645.810 504.678, 619.851 541.002, 609.762 549.043 L 605.500 552.439 608.071 548.969 C 612.377 543.158, 612.396 543.026, 608.776 544.064 C 591.952 548.889, 583.757 534.414, 587.420 506.342 C 590.136 485.520, 600.356 448.512, 607.579 433.341 C 610.030 428.194, 613.465 423.550, 619.801 416.820 C 635.638 399.998, 644.203 384.778, 644.843 372.324 C 645.154 366.270, 644.853 364.511, 642.921 361.074 C 636.465 349.586, 620.599 351.283, 611.125 364.476 C 609.330 366.975, 606.631 369.656, 605.129 370.433 C 597.622 374.315, 590.679 385.404, 582.275 406.934 C 574.924 425.766, 572.687 429.575, 566.722 433.421 C 563.850 435.273, 561.351 436.649, 561.169 436.480 C 560.987 436.310, 561.361 435.194, 562 434 C 562.639 432.806, 563.003 431.670, 562.809 431.476 C 562.615 431.282, 557.086 433.782, 550.521 437.031 C 537.583 443.435, 516.422 451.376, 514.382 450.593 C 512.998 450.062, 513.549 447.735, 523.518 412 C 530.149 388.228, 533.901 371.091, 534.677 361.033 C 535.230 353.860, 535.120 353.296, 532.566 350.261 C 531.080 348.495, 528.219 346.599, 526.186 346.035 C 521.771 344.809, 521.352 344.823, 517.464 346.326 M 711.799 465.669 C 709.480 467.158, 703.152 476.796, 704.151 477.318 C 704.343 477.418, 706.285 478.400, 708.466 479.500 C 711.020 480.787, 713.514 483.254, 715.466 486.423 C 718.370 491.135, 718.495 491.799, 718.387 501.923 C 718.310 509.142, 717.627 514.881, 716.235 520 C 714.384 526.808, 714.340 527.661, 715.753 529.250 C 718.949 532.842, 720.915 531.459, 724.994 522.750 C 730.001 512.059, 732.926 501.500, 733.674 491.407 C 734.472 480.664, 732.896 474.267, 728.131 468.897 C 724.917 465.276, 723.819 464.698, 719.475 464.342 C 715.911 464.050, 713.734 464.427, 711.799 465.669 M 673.466 499.482 C 670.151 506.976, 667.332 517.374, 666.505 525.157 C 665.952 530.358, 666.222 532.545, 668.007 537.304 C 670.432 543.769, 679.198 557.478, 681.463 558.347 C 685.480 559.889, 702 554.563, 702 551.726 C 702 551.228, 699.715 548.273, 696.921 545.160 C 686.344 533.371, 679.469 517.698, 678.304 502.716 C 677.971 498.434, 677.306 494.689, 676.826 494.393 C 676.347 494.096, 674.834 496.387, 673.466 499.482 M 441.024 514.063 C 427.126 520.806, 414.274 528.989, 409.054 534.417 C 404.897 538.739, 405.409 538.886, 411.706 535.175 L 416.500 532.350 416.546 538.425 C 416.608 546.539, 419.139 551.712, 424.140 553.951 L 427.932 555.649 424.434 560.960 C 422.511 563.881, 421.114 566.447, 421.330 566.663 C 422.425 567.758, 432.728 556.721, 438.083 548.715 C 446.757 535.747, 457 514.691, 457 509.828 C 457 506.899, 454.330 507.606, 441.024 514.063 M 486 596 L 486 602 480 602 C 474.667 602, 474 602.222, 474 604 C 474 605.333, 473.333 606, 472 606 C 470.333 606, 470 606.667, 470 610 C 470 613.333, 470.333 614, 472 614 C 473.333 614, 474 614.667, 474 616 C 474 617.843, 473.333 618, 465.500 618 L 457 618 457 685 L 457 752 465.500 752 L 474 752 474 760.500 L 474 769 507.500 769 L 541 769 541 760.500 C 541 753.611, 541.284 752, 542.500 752 C 543.433 752, 544 752.944, 544 754.500 C 544 756.796, 544.367 757, 548.500 757 C 552.633 757, 553 756.796, 553 754.500 C 553 752.667, 553.533 752, 555 752 C 556.778 752, 557 751.333, 557 746 L 557 740 563.524 740 L 570.048 740 569.774 723.250 L 569.500 706.500 561.250 706.210 L 553 705.919 553 711.960 L 553 718 546.500 718 L 540 718 540 734.500 L 540 751 534 751 L 528 751 528 745.500 L 528 740 507.500 740 L 487 740 487 685 L 487 630 480.500 630 L 474 630 474 624.500 L 474 619 507 619 L 540 619 540 635.500 L 540 652 548.500 652 L 557 652 557 646 L 557 640 563.524 640 L 570.048 640 569.774 623.250 L 569.500 606.500 561.250 606.210 L 553 605.919 553 597.960 L 553 590 519.500 590 L 486 590 486 596 M 541 612.500 L 541 618 547 618 L 553 618 553 612.500 L 553 607 547 607 L 541 607 541 612.500 M 620 629 L 620 635 613.500 635 C 607.233 635, 607 635.090, 607 637.500 C 607 639.333, 606.467 640, 605 640 C 603.381 640, 603 640.667, 603 643.500 C 603 646.333, 603.381 647, 605 647 C 606.467 647, 607 647.667, 607 649.500 C 607 651.971, 606.900 652, 598.500 652 L 590 652 590 702 L 590 752 598.500 752 L 607 752 607 760.517 L 607 769.034 632.250 768.767 L 657.500 768.500 657.790 760.250 C 658.017 753.818, 658.402 752, 659.540 752 C 660.431 752, 661 752.975, 661 754.500 C 661 756.796, 661.367 757, 665.500 757 C 669.633 757, 670 756.796, 670 754.500 C 670 752.667, 670.533 752, 672 752 C 673.778 752, 674 751.333, 674 746 L 674 740 680.500 740 L 687 740 687 690 L 687 640 678.500 640 L 670 640 670 631.500 L 670 623 645 623 L 620 623 620 629 M 837 629 L 837 635 830.500 635 C 824.233 635, 824 635.090, 824 637.500 C 824 639.333, 823.467 640, 822 640 C 820.381 640, 820 640.667, 820 643.500 C 820 646.333, 820.381 647, 822 647 C 823.467 647, 824 647.667, 824 649.500 C 824 651.971, 823.901 652, 815.492 652 L 806.984 652 807.242 710.250 L 807.500 768.500 816 768.500 L 824.500 768.500 824.800 762.750 L 825.100 757 831.050 757 L 837 757 837 710 L 837 663 831 663 L 825 663 825 657.500 L 825 652 849.500 652 L 874 652 874 710.500 L 874 769 882.500 769 L 891 769 891 763 L 891 757 897.500 757 L 904 757 904 698.500 L 904 640 895.500 640 L 887 640 887 631.500 L 887 623 862 623 L 837 623 837 629 M 658 646 L 658 652 664 652 L 670 652 670 646 L 670 640 664 640 L 658 640 658 646 M 875 646 L 875 652 881 652 L 887 652 887 646 L 887 640 881 640 L 875 640 875 646 M 728 649.500 C 728 651.910, 728.233 652, 734.500 652 C 740.767 652, 741 651.910, 741 649.500 C 741 647.090, 740.767 647, 734.500 647 C 728.233 647, 728 647.090, 728 649.500 M 608 657.500 L 608 663 614 663 L 620 663 620 701.500 L 620 740 614 740 L 608 740 608 745.500 L 608 751 614 751 L 620 751 620 745.500 L 620 740 632.500 740 L 645 740 645 745.500 L 645 751 651 751 L 657 751 657 701.500 L 657 652 632.500 652 L 608 652 608 657.500 M 724 674.500 C 724 679.333, 724.242 680, 726 680 C 727.758 680, 728 679.333, 728 674.500 C 728 669.667, 727.758 669, 726 669 C 724.242 669, 724 669.667, 724 674.500 M 474 745.500 L 474 751 480 751 L 486 751 486 745.500 L 486 740 480 740 L 474 740 474 745.500" stroke="none" fill="#fbfbf7" fill-rule="evenodd"/></svg>